<svg width="512" height="512" viewBox="0 0 512 512" fill="none" xmlns="http://www.w3.org/2000/svg">
<g opacity="0.3" filter="url(#filter0_f_616:5540)">
<path d="M356 36H156C89.7258 36 36 89.7258 36 156V356C36 422.274 89.7258 476 156 476H356C422.274 476 476 422.274 476 356V156C476 89.7258 422.274 36 356 36Z" fill="#141414"/>
</g>
<path d="M356 36H156C89.7258 36 36 89.7258 36 156V356C36 422.274 89.7258 476 156 476H356C422.274 476 476 422.274 476 356V156C476 89.7258 422.274 36 356 36Z" fill="url(#paint0_linear_616:5540)"/>
<path fill-rule="evenodd" clip-rule="evenodd" d="M159.168 156.242C168.773 164.045 172.377 163.45 190.414 162.246L360.454 152.036C364.061 152.036 361.062 148.439 359.859 147.841L331.619 127.425C326.208 123.224 318.999 118.413 305.182 119.617L140.531 131.626C134.526 132.221 133.327 135.224 135.718 137.63L159.168 156.242ZM169.377 195.87V374.782C169.377 384.398 174.182 387.995 184.997 387.4L371.872 376.587C382.692 375.992 383.897 369.378 383.897 361.567V183.855C383.897 176.057 380.897 171.852 374.274 172.452L178.988 183.855C171.781 184.461 169.377 188.066 169.377 195.87H169.377ZM353.86 205.467C355.058 210.876 353.86 216.28 348.44 216.888L339.437 218.682V350.766C331.619 354.968 324.41 357.37 318.403 357.37C308.785 357.37 306.376 354.366 299.172 345.366L240.276 252.905V342.363L258.913 346.568C258.913 346.568 258.913 357.37 243.876 357.37L202.424 359.775C201.22 357.37 202.424 351.372 206.629 350.17L217.446 347.172V228.891L202.428 227.688C201.223 222.279 204.223 214.48 212.641 213.875L257.11 210.878L318.403 304.541V221.684L302.775 219.89C301.576 213.278 306.376 208.477 312.386 207.881L353.86 205.467ZM126.707 115.416L297.97 102.804C319.001 101 324.413 102.208 337.631 111.81L392.3 150.235C401.321 156.843 404.328 158.641 404.328 165.844V376.587C404.328 389.794 399.516 397.605 382.695 398.8L183.807 410.811C171.179 411.413 165.169 409.613 158.556 401.203L118.297 348.968C111.084 339.353 108.084 332.16 108.084 323.744V136.422C108.084 125.621 112.897 116.612 126.707 115.416Z" fill="black"/>
<defs>
<filter id="filter0_f_616:5540" x="34.7625" y="34.7625" width="442.475" height="442.475" filterUnits="userSpaceOnUse" color-interpolation-filters="sRGB">
<feFlood flood-opacity="0" result="BackgroundImageFix"/>
<feBlend mode="normal" in="SourceGraphic" in2="BackgroundImageFix" result="shape"/>
<feGaussianBlur stdDeviation="0.61875" result="effect1_foregroundBlur_616:5540"/>
</filter>
<linearGradient id="paint0_linear_616:5540" x1="36" y1="475.92" x2="476" y2="35.92" gradientUnits="userSpaceOnUse">
<stop stop-color="#E8E8E8"/>
<stop offset="1" stop-color="#FBFBFB" stop-opacity="0.99608"/>
</linearGradient>
</defs>
</svg>
